<svg t="1570144355616" class="icon" viewBox="0 0 1134 1024" version="1.1" xmlns="http://www.w3.org/2000/svg" p-id="1445" width="200" height="200"><path d="M285.12115 411.337881m39.906378 0l542.550361 0q39.906378 0 39.906378 39.906378l0 405.104857q0 39.906378-39.906378 39.906379l-542.550361 0q-39.906378 0-39.906378-39.906379l0-405.104857q0-39.906378 39.906378-39.906378Z" fill="#BFE81A" p-id="1446"></path><path d="M855.936692 409.441777h-54.987021c22.047723 0 39.906378 14.551497 39.906378 32.542438V868.784032c0 17.990942-17.902751 32.542439-39.906378 32.542439h54.987021c22.047723 0 39.685901-14.551497 39.685901-32.542439v-426.799817c0.220477-17.990942-17.682274-32.542439-39.685901-32.542438z" fill="#A4BC13" p-id="1447"></path><path d="M249.359744 636.753798a17.638178 17.638178 0 0 1-17.638178-17.638178v-39.244947a17.638178 17.638178 0 0 1 35.276356 0v39.244947a17.638178 17.638178 0 0 1-17.638178 17.638178zM871.722861 903.795816H249.359744a17.638178 17.638178 0 0 1-17.638178-17.638178v-198.429505a17.638178 17.638178 0 0 1 35.276356 0v180.791326h587.086761v-22.665059a17.638178 17.638178 0 0 1 35.276356 0v40.303238a17.638178 17.638178 0 0 1-17.638178 17.638178zM871.722861 811.724526a17.638178 17.638178 0 0 1-17.638178-17.638179v-351.749368H266.997922v84.442778a17.638178 17.638178 0 0 1-35.276356 0V424.698801a17.638178 17.638178 0 0 1 17.638178-17.638178h622.363117a17.638178 17.638178 0 0 1 17.638178 17.638178v369.387546a17.638178 17.638178 0 0 1-17.638178 17.638179z" fill="#020202" p-id="1448"></path><path d="M573.240791 501.513067h-23.017823a8.819089 8.819089 0 0 1 0-17.638178H573.240791a8.819089 8.819089 0 0 1 0 17.638178zM511.198499 501.513067h-157.42074a8.819089 8.819089 0 0 1 0-17.638178h157.42074a8.819089 8.819089 0 0 1 0 17.638178z" fill="#FFFFFF" p-id="1449"></path><path d="M493.879969 156.734884m29.502898-4.836573l51.912915-8.510369q29.502897-4.836572 34.33947 24.666325l0 0q4.836572 29.502897-24.666326 34.33947l-51.912915 8.510369q-29.502897 4.836572-34.33947-24.666325l0 0q-4.836572-29.502897 24.666326-34.33947Z" fill="#FF5295" p-id="1450"></path><path d="M471.159835 184.643196L392.449465 182.967569c-23.767445-0.529145-39.068565-25.972217-27.559654-45.815168L392.449465 89.352938c11.508911-19.84295 35.761406-16.403506 48.01994 3.96859l42.331627 72.272435" fill="#FF5295" p-id="1451"></path><path d="M460.135973 208.719309h-1.278768l-86.779836-6.261553A57.985511 57.985511 0 0 1 325.20391 172.075994a45.594691 45.594691 0 0 1 0-44.933259l33.336157-57.324079a45.594691 45.594691 0 0 1 38.980374-22.356391 58.073702 58.073702 0 0 1 49.695567 25.575358l47.53489 70.552713a17.638178 17.638178 0 0 1-29.279376 19.666569L417.936632 92.704192a22.75325 22.75325 0 0 0-19.225614-10.009666 11.332529 11.332529 0 0 0-9.656903 4.762308l-33.336157 57.368175a11.200243 11.200243 0 0 0 0.661432 10.715193A22.885536 22.885536 0 0 0 374.811286 167.26959l86.779837 6.217458a17.638178 17.638178 0 0 1-1.234672 35.276356z" fill="#020202" p-id="1452"></path><path d="M616.542518 151.39523L693.092212 132.390093c23.061918-5.776503 32.321962-33.953493 16.668078-50.753858l-37.613415-40.435523c-15.653883-16.800365-38.539419-8.025371-45.947454 14.507401l-25.178499 79.724566" fill="#FF5295" p-id="1453"></path><path d="M628.712861 172.869712a17.638178 17.638178 0 0 1-5.159167-34.482638l83.208106-25.398977a23.017823 23.017823 0 0 0 15.212928-15.477501 11.42072 11.42072 0 0 0-1.763817-10.627003l-45.330118-48.50499a11.244339 11.244339 0 0 0-10.450621-2.469345 22.841441 22.841441 0 0 0-16.535792 14.022352l-30.602239 79.371802a17.638178 17.638178 0 1 1-32.895202-12.655393l30.602239-79.371802a58.117797 58.117797 0 0 1 42.728486-36.202361 45.594691 45.594691 0 0 1 42.99306 13.228634l45.286022 48.50499a45.5065 45.5065 0 0 1 10.009666 43.786777 58.029606 58.029606 0 0 1-38.936278 40.08276L633.872028 172.075994a17.638178 17.638178 0 0 1-5.159167 0.793718z" fill="#020202" p-id="1454"></path><path d="M509.302395 242.628707a52.649962 52.649962 0 0 1-42.728487-83.428583 52.209007 52.209007 0 0 1 34.262161-21.2981l78.048939-12.78768a52.914535 52.914535 0 0 1 17.064937 104.021156l-78.093034 12.787679a51.283003 51.283003 0 0 1-8.554516 0.705528z m83.781346-30.866812z m-5.688312-52.032626a19.666569 19.666569 0 0 0-2.778013 0.220477l-78.093034 12.78768a17.638178 17.638178 0 0 0 5.644217 34.438542l78.048938-12.787679a17.638178 17.638178 0 0 0-2.822108-34.65902z" fill="#020202" p-id="1455"></path><path d="M291.70901 229.62055L836.380362 140.327273a35.276356 35.276356 0 0 1 40.519304 29.107404l17.285415 105.43221a23.811541 23.811541 0 0 1-19.64893 27.352405L283.829154 399.061709l-21.152585-129.023274a35.276356 35.276356 0 0 1 29.032441-40.417885z" fill="#BFE81A" p-id="1456"></path><path d="M824.58483 142.311568l-30.866812 5.070976a34.482638 34.482638 0 0 1 26.457267 27.868322l18.608278 113.722154a23.2383 23.2383 0 0 1-6.834794 20.416191l30.866812-5.070976a23.591063 23.591063 0 0 0 19.710664-26.898222l-17.638178-106.666883a34.923593 34.923593 0 0 0-40.303237-28.441562z" fill="#A4BC13" p-id="1457"></path><path d="M246.140777 405.120423a17.638178 17.638178 0 0 1-2.866204-35.011784L726.340178 291.133697a17.638178 17.638178 0 1 1 5.732407 34.835401L249.00698 404.899946a16.006647 16.006647 0 0 1-2.866203 0.220477z" fill="#020202" p-id="1458"></path><path d="M246.140777 405.120423a17.638178 17.638178 0 0 1-17.638179-14.771974l-15.257024-94.364253a52.914535 52.914535 0 0 1 43.610396-60.675333l544.711037-89.293277A52.914535 52.914535 0 0 1 862.24234 189.714172l15.477502 94.364253a17.638178 17.638178 0 0 1-3.086681 13.228634 17.902751 17.902751 0 0 1-11.464816 7.143462l-69.847186 11.42072a17.638178 17.638178 0 1 1-5.732408-34.791306l52.47358-8.819089-12.611297-76.990648a17.638178 17.638178 0 0 0-20.195714-14.375115L262.544282 270.100169a17.638178 17.638178 0 0 0-14.463306 20.151619l15.477501 94.408348a17.638178 17.638178 0 0 1-14.551497 20.23981 16.006647 16.006647 0 0 1-2.866203 0.220477z" fill="#020202" p-id="1459"></path><path d="M463.972277 272.613609a8.819089 8.819089 0 0 1-1.411054-17.638178l15.124738-2.469345a8.819089 8.819089 0 0 1 2.822108 17.373606l-15.080642 2.51344zM335.125385 293.735328a8.819089 8.819089 0 0 1-1.411054-17.638178l103.315629-16.932651a8.819089 8.819089 0 0 1 2.822108 17.373605l-103.315628 17.064938a7.628512 7.628512 0 0 1-1.411055 0.132286z" fill="#FFFFFF" p-id="1460"></path><path d="M1108.339021 1024h-105.388114a17.638178 17.638178 0 0 1 0-35.276356h114.074917a17.638178 17.638178 0 0 1 0 35.276356zM920.536519 1023.735427h-3.748113a17.638178 17.638178 0 1 1 0-35.276356h36.907888a17.638178 17.638178 0 1 1 0 35.276356zM835.608691 1023.735427c-197.98855 0-401.048076-2.99849-597.757858-5.864694l-114.648158-1.631531a17.638178 17.638178 0 1 1 0.485049-35.276357l114.648159 1.631532c207.248594 3.042586 421.464268 6.173362 629.286102 5.820599a17.638178 17.638178 0 0 1 0 35.276356zM76.505598 1015.842343h-0.529145c-15.124738-0.440954-34.17397-0.573241-58.250084-0.440955H17.638178a17.638178 17.638178 0 0 1 0-35.276356c24.472972 0 44.095445 0 59.484756 0.440954a17.638178 17.638178 0 0 1-0.529145 35.276357z" p-id="1461"></path><path d="M974.950299 787.163362a30.249476 30.249476 0 1 1 30.249476-30.249475 30.249476 30.249476 0 0 1-30.249476 30.249475z m0-56.089406a25.839931 25.839931 0 1 0 25.839931 25.839931 25.839931 25.839931 0 0 0-25.839931-25.839931z" fill="#FF6903" p-id="1462"></path><path d="M186.744211 180.321842a21.165814 21.165814 0 1 1 21.165814-21.165814 21.165814 21.165814 0 0 1-21.165814 21.165814z m0-37.922083a16.756269 16.756269 0 1 0 16.75627 16.756269 16.756269 16.756269 0 0 0-16.75627-16.756269z" fill="#7AF4EB" p-id="1463"></path><path d="M931.207617 106.153303l9.039566 18.343705 20.195714 2.9103-14.595592 14.286924 3.439445 20.151619-18.079133-9.524617-18.123228 9.524617 3.48354-20.151619-14.639688-14.286924 20.23981-2.9103 9.039566-18.343705zM157.156168 477.657431l-14.110543-7.408035-14.066447 7.408035 2.689822-15.697979-11.42072-11.112052 15.786169-2.292963 7.011176-14.242829L149.924515 448.554437l15.742074 2.292963-11.33253 11.112052z m-14.110543-12.39082l8.245848 4.409544-1.366958-9.260043 6.658412-6.482031-9.171853-1.322863-4.144972-8.334039-4.100876 8.334039-9.215948 1.322863 6.658412 6.482031-1.543341 9.171852z" fill="#FF6903" p-id="1464"></path><path d="M1029.893224 362.612414h-4.409545v-4.409545a4.409545 4.409545 0 1 0-8.819089 0v4.409545h-4.409544a4.409545 4.409545 0 0 0 0 8.819089h4.409544v4.409544a4.409545 4.409545 0 0 0 8.819089 0v-4.409544h4.409545a4.409545 4.409545 0 0 0 0-8.819089zM88.543654 584.588886l-12.038056 8.730898 4.585926 14.198734h14.904261l4.630022-14.198734-12.082153-8.730898z" fill="#7AF4EB" p-id="1465"></path><path d="M1085.277103 546.88728h-16.800364a3.527636 3.527636 0 0 0-1.146482 0 5.026881 5.026881 0 0 0 1.014195-0.661431l11.861675-11.861675a3.96859 3.96859 0 0 0 0-5.600122l-1.852008-1.852009a3.96859 3.96859 0 0 0-5.600122 0l-11.861675 11.861675a5.335549 5.335549 0 0 0-0.661432 0.9701 3.615827 3.615827 0 0 0 0.264573-1.190577v-16.756269a3.96859 3.96859 0 0 0-3.96859-3.96859h-2.645727a3.96859 3.96859 0 0 0-3.96859 3.96859v16.756269a4.806404 4.806404 0 0 0 0 1.146482 3.659922 3.659922 0 0 0-0.661431-1.014196l-11.861675-11.861674a3.96859 3.96859 0 0 0-5.600122 0l-1.852009 1.852008a3.96859 3.96859 0 0 0 0 5.600122l11.861675 11.861675a3.659922 3.659922 0 0 0 1.014196 0.661431 3.792208 3.792208 0 0 0-1.190578-0.220477h-16.800364a3.96859 3.96859 0 0 0-3.96859 3.924495v2.601631a3.96859 3.96859 0 0 0 3.96859 3.96859h16.800364a3.527636 3.527636 0 0 0 1.146482 0 5.026881 5.026881 0 0 0-1.014195 0.661432l-11.861675 11.861675a3.96859 3.96859 0 0 0 0 5.600121l1.852009 1.852009a3.96859 3.96859 0 0 0 5.600121 0l11.861675-11.861675a3.659922 3.659922 0 0 0 0.617336-0.9701 5.159167 5.159167 0 0 0 0 1.190577v16.75627a3.96859 3.96859 0 0 0 3.96859 3.96859h2.601632a3.96859 3.96859 0 0 0 3.96859-3.96859v-16.75627a4.806404 4.806404 0 0 0 0-1.146481 3.659922 3.659922 0 0 0 0.661431 1.014195l11.861675 11.861675a3.96859 3.96859 0 0 0 5.600122 0l1.852009-1.852009a3.96859 3.96859 0 0 0 0-5.600122l-11.861675-11.861674a3.659922 3.659922 0 0 0-1.014195-0.661432 3.792208 3.792208 0 0 0 1.190577 0h16.800364a3.96859 3.96859 0 0 0 3.96859-3.924495v-2.645726a3.96859 3.96859 0 0 0-4.144972-3.704018z m-22.576868 10.84748l-1.852008 1.852008a2.469345 2.469345 0 1 1-4.409545 1.763818H1053.881146a3.924495 3.924495 0 0 0-3.439444 2.116582 4.012686 4.012686 0 0 0-0.926005-3.96859l-1.852008-1.852009a3.924495 3.924495 0 0 0-3.924495-0.926004 3.924495 3.924495 0 0 0 2.116581-3.483541v-2.601631a3.924495 3.924495 0 0 0-2.072486-3.439445 3.836304 3.836304 0 0 0 3.924495-0.926004l1.852009-1.852009a2.469345 2.469345 0 1 1 4.409544-1.763818h2.601631a3.924495 3.924495 0 0 0 3.439445-2.116581 4.012686 4.012686 0 0 0 0.926005 3.96859l1.852008 1.852009a3.924495 3.924495 0 0 0 3.924495 0.926004 3.924495 3.924495 0 0 0-2.116581 3.439445v2.645727a3.924495 3.924495 0 0 0 2.072486 3.439444 3.748113 3.748113 0 0 0-3.968591 0.926005zM180.218086 760.617904a2.954395 2.954395 0 0 0 2.954394-2.954395V749.726329a2.954395 2.954395 0 1 0-5.908789 0v7.93718a2.954395 2.954395 0 0 0 2.954395 2.954395zM172.325001 762.117149a2.954395 2.954395 0 0 0 4.409544-4.189067l-5.600121-5.600121a2.954395 2.954395 0 1 0-4.189068 4.189067zM174.970728 765.821167A2.954395 2.954395 0 0 0 171.972237 762.954963h-7.93718a2.954395 2.954395 0 0 0 0 5.90879H171.972237a2.954395 2.954395 0 0 0 2.998491-3.042586z" fill="#EF3FE7" p-id="1466"></path><path d="M176.381782 769.525184a2.99849 2.99849 0 0 0-4.409545 0l-5.600121 5.600122a2.954395 2.954395 0 1 0 4.409544 4.409544l5.600122-5.820598a2.99849 2.99849 0 0 0 0-4.189068zM180.17399 771.068525a2.954395 2.954395 0 0 0-2.954395 2.954395v7.93718a2.954395 2.954395 0 0 0 5.90879 0v-7.93718a2.954395 2.954395 0 0 0-2.954395-2.954395zM188.067075 769.56928a2.954395 2.954395 0 1 0-4.189067 4.189067l5.732407 5.600122a2.954395 2.954395 0 0 0 4.409545-4.189068zM196.312923 762.954963h-7.93718a2.954395 2.954395 0 0 0 0 5.90879h7.93718a2.954395 2.954395 0 1 0 0-5.90879zM183.922103 762.161245a2.99849 2.99849 0 0 0 4.189067 0l5.600122-5.600122a2.954395 2.954395 0 1 0-4.409545-4.409544l-5.600121 5.600121a2.99849 2.99849 0 0 0 0.220477 4.409545z" fill="#EF3FE7" p-id="1467"></path><path d="M84.090014 331.304647m-7.584416 0a7.584417 7.584417 0 1 0 15.168833 0 7.584417 7.584417 0 1 0-15.168833 0Z" fill="#EF3FE7" p-id="1468"></path></svg>